<?xml version="1.0" encoding="utf-8"?>
<!-- Generator: Adobe Illustrator 16.0.0, SVG Export Plug-In . SVG Version: 6.00 Build 0)  -->
<!DOCTYPE svg PUBLIC "-//W3C//DTD SVG 1.1//EN" "http://www.w3.org/Graphics/SVG/1.1/DTD/svg11.dtd">
<svg version="1.1" xmlns="http://www.w3.org/2000/svg" xmlns:xlink="http://www.w3.org/1999/xlink" x="0px" y="0px" width="23.44px"
	 height="34.333px" viewBox="0 0 23.44 34.333" enable-background="new 0 0 23.44 34.333" xml:space="preserve">
<g id="Layer_1">
</g>
<g id="Isolation_Mode">
	<path fill="#80B7D3" d="M11.315,32.907C10.874,32.292,0.501,17.732,0.501,11.72c0-6.187,5.033-11.22,11.22-11.22
		c6.187,0,11.22,5.033,11.22,11.22c0,6.012-10.372,20.571-10.813,21.187l-0.406,0.568L11.315,32.907z"/>
	<path fill="#FFFFFF" d="M11.721,1c5.92,0,10.719,4.8,10.719,10.721c0,5.921-10.719,20.895-10.719,20.895S1,17.642,1,11.721
		C1,5.8,5.8,1,11.721,1 M11.721,0C5.258,0,0,5.258,0,11.721c0,6.171,10.462,20.855,10.908,21.477l0.813,1.136l0.812-1.136
		c0.446-0.622,10.907-15.306,10.907-21.477C23.44,5.258,18.183,0,11.721,0"/>
	<path fill="#FFFFFF" d="M10.34,7.354H9.094c-0.139,0-0.239,0.101-0.239,0.239v7.666C8.389,15.311,7.62,15.36,7.117,15.36
		c-1.36,0-1.687-0.654-1.687-2.09V7.593c0-0.138-0.112-0.239-0.252-0.239H3.933c-0.14,0-0.252,0.101-0.252,0.239v5.677
		c0,2.682,1.41,3.538,3.436,3.538c0.768,0,2.355-0.151,2.795-0.215c0.453-0.062,0.68-0.238,0.68-0.767V7.593
		C10.592,7.456,10.478,7.354,10.34,7.354"/>
	<path fill="#1D1D1B" d="M16.11,7.297c-0.729,0-2.104,0.113-2.781,0.214c-0.392,0.062-0.53,0.176-0.53,0.641v8.347
		c0,0.139,0.101,0.252,0.239,0.252h1.272c0.138,0,0.238-0.113,0.238-0.252V8.908c0.416-0.05,1.108-0.1,1.737-0.1
		c1.209,0,1.713,0.579,1.713,2.013v5.678c0,0.139,0.088,0.252,0.227,0.252h1.296c0.14,0,0.238-0.113,0.238-0.252v-5.678
		C19.76,8.14,18.452,7.297,16.11,7.297"/>
</g>
</svg>
