<?xml version="1.0" encoding="utf-8"?>
<!-- Generator: Adobe Illustrator 16.0.0, SVG Export Plug-In . SVG Version: 6.00 Build 0)  -->
<!DOCTYPE svg PUBLIC "-//W3C//DTD SVG 1.1//EN" "http://www.w3.org/Graphics/SVG/1.1/DTD/svg11.dtd">
<svg version="1.1" id="Layer_1" xmlns="http://www.w3.org/2000/svg" xmlns:xlink="http://www.w3.org/1999/xlink" x="0px" y="0px"
	 width="50.968px" height="58.659px" viewBox="0 0 50.968 58.659" enable-background="new 0 0 50.968 58.659" xml:space="preserve">
<g>
	<defs>
		<rect id="SVGID_1_" x="0" y="0" width="50.967" height="58.659"/>
	</defs>
	<clipPath id="SVGID_2_">
		<use xlink:href="#SVGID_1_"  overflow="visible"/>
	</clipPath>
	<path clip-path="url(#SVGID_2_)" fill="none" stroke="#7CACC5" stroke-width="1.404" stroke-miterlimit="22.926" d="M0.7,58.599
		l1.447-17.071c0.376-3.174,9.743-6.735,12.71-8.099c0.493-0.208,1.378-0.825,2.201-1.442l8.441,6.502l8.412-6.502
		c0.822,0.617,1.709,1.234,2.201,1.442c2.967,1.362,12.335,4.925,12.71,8.099l1.446,17.071 M17.058,31.987l1.91-2.781
		 M31.983,29.181l1.928,2.806 M15.989,32.756v10.354 M12.521,51.771v2.141l-2.899,0.003v-7.597c-0.045-4.282,12.777-4.282,12.732,0
		v7.597l-2.899-0.003v-2.141 M34.746,32.594v9.141 M34.746,41.735c1.298,0,2.353,1.053,2.353,2.351s-1.055,2.35-2.353,2.35
		c-1.297,0-2.349-1.052-2.349-2.35S33.449,41.735,34.746,41.735z M16.287,16.286l-1.867-0.963l-0.87,0.626
		c-0.012,2.107,0.412,4.153,1.157,6.156l1.032,0.542l0.219,0.765c0.862,3.008,3.962,7.231,7.208,8.566
		c1.526,0.255,3.11,0.255,4.638,0.001c0.961-0.396,1.912-1.025,2.795-1.795c0.041-0.037,1.301-1.247,1.834-1.906
		c1.225-1.502,2.164-3.414,2.58-4.866l0.219-0.765l1.031-0.542c0.736-1.979,1.168-4.039,1.156-6.156l-0.71-0.512l-2.079,0.718
		 M34.072,18.918c-0.027-0.246,0.375-2.918,0.17-4.147c-0.927-5.565-6.304,0.536-12.507-1.386c-1.81-0.561-4.15-2.793-5.087,1.131
		c-0.134,0.56-0.365,2.604,0.125,4.748 M36.709,15.438c0.235-1.898,0.305-4.029-0.027-6.221c-0.139-2.474-1.395-4.746-3.399-6.345
		c-2.354-1.876-7.031-2.795-9.772-1.701c-3.188-0.364-6.078,0.636-7.903,3.591c-0.721,1.166-1.399,2.788-1.42,4.738
		c-0.22,1.933,0.013,4.051,0.224,5.817"/>
</g>
</svg>
