<?xml version="1.0" encoding="utf-8"?>
<!-- Generator: Adobe Illustrator 16.0.0, SVG Export Plug-In . SVG Version: 6.00 Build 0)  -->
<!DOCTYPE svg PUBLIC "-//W3C//DTD SVG 1.1//EN" "http://www.w3.org/Graphics/SVG/1.1/DTD/svg11.dtd">
<svg version="1.1" id="Layer_1" xmlns="http://www.w3.org/2000/svg" xmlns:xlink="http://www.w3.org/1999/xlink" x="0px" y="0px"
	 width="55.373px" height="471.693px" viewBox="0 0 55.373 471.693" enable-background="new 0 0 55.373 471.693"
	 xml:space="preserve">
<g>
	<g>
		<g>
			<g id="chart">
				<g>
					<g>
						<g>
							<g>
								<defs>
									<rect id="SVGID_1_" x="0.989" y="75.028" width="40.229" height="44.683"/>
								</defs>
								<clipPath id="SVGID_2_">
									<use xlink:href="#SVGID_1_"  overflow="visible"/>
								</clipPath>
								<path clip-path="url(#SVGID_2_)" fill="#FFFFFF" d="M17.866,78.875c-0.662,0-1.303,0.357-1.63,0.984L3.197,104.833
									c-0.225,0.436-0.268,0.932-0.121,1.396c0.148,0.472,0.467,0.854,0.899,1.077L23.496,117.5
									c0.431,0.229,0.927,0.271,1.397,0.121c0.47-0.146,0.852-0.467,1.078-0.896L39.01,91.75c0.47-0.896,0.119-2.008-0.776-2.478
									L18.712,79.083C18.442,78.941,18.151,78.875,17.866,78.875 M24.334,119.709c-0.609,0-1.212-0.146-1.765-0.437l-19.52-10.189
									c-0.905-0.475-1.573-1.271-1.881-2.252c-0.308-0.979-0.217-2.02,0.256-2.923l13.039-24.976
									c0.979-1.875,3.3-2.604,5.174-1.625L39.159,87.5c1.874,0.979,2.604,3.304,1.624,5.174L27.744,117.65
									c-0.472,0.904-1.272,1.572-2.252,1.881C25.111,119.649,24.721,119.709,24.334,119.709"/>
							</g>
						</g>
					</g>
				</g>
			</g>
		</g>
		<g>
			<g>
				<g>
					<g>
						<g>
							<g>
								<defs>
									<rect id="SVGID_3_" x="0.989" y="75.028" width="40.229" height="44.683"/>
								</defs>
								<clipPath id="SVGID_4_">
									<use xlink:href="#SVGID_3_"  overflow="visible"/>
								</clipPath>
								<path clip-path="url(#SVGID_4_)" fill="#FFFFFF" d="M33.301,89.662L21.214,83.35c-0.693-0.362-0.963-1.224-0.6-1.913
									l2.043-3.914c0.363-0.691,1.219-0.962,1.912-0.604l12.088,6.313c0.693,0.363,0.963,1.221,0.602,1.913l-2.045,3.914
									C34.853,89.755,33.996,90.023,33.301,89.662"/>
							</g>
						</g>
					</g>
				</g>
			</g>
		</g>
		<g>
			<g>
				<g>
					<g>
						<g>
							<g>
								<defs>
									<rect id="SVGID_5_" x="0.989" y="75.028" width="40.229" height="44.683"/>
								</defs>
								<clipPath id="SVGID_6_">
									<use xlink:href="#SVGID_5_"  overflow="visible"/>
								</clipPath>
								<path clip-path="url(#SVGID_6_)" fill="#FFFFFF" d="M13.667,95.385c-2.026,3.879-0.518,8.685,3.362,10.71
									c1.879,0.979,4.029,1.173,6.051,0.532c2.022-0.635,3.679-2.021,4.658-3.896c2.025-3.88,0.519-8.688-3.36-10.71
									C20.499,89.999,15.694,91.506,13.667,95.385 M20.692,109.002c-1.58,0-3.146-0.382-4.589-1.135
									c-4.856-2.536-6.745-8.553-4.21-13.407c2.537-4.854,8.555-6.746,13.409-4.21c4.858,2.535,6.746,8.551,4.211,13.408
									c-1.229,2.354-3.299,4.087-5.833,4.882C22.698,108.848,21.692,109.002,20.692,109.002"/>
							</g>
						</g>
					</g>
				</g>
			</g>
		</g>
		<g>
			<g>
				<g>
					<g>
						<g>
							<g>
								<defs>
									<rect id="SVGID_7_" x="0.989" y="75.028" width="40.229" height="44.683"/>
								</defs>
								<clipPath id="SVGID_8_">
									<use xlink:href="#SVGID_7_"  overflow="visible"/>
								</clipPath>
								<path clip-path="url(#SVGID_8_)" fill="#FFFFFF" d="M19.673,103.741c-0.268,0-0.525-0.107-0.714-0.303l-3.923-4.011
									c-0.386-0.396-0.379-1.029,0.016-1.415c0.395-0.39,1.029-0.382,1.414,0.017l3.159,3.229l4.762-5.554
									c0.358-0.418,0.992-0.468,1.41-0.104c0.42,0.355,0.469,0.987,0.106,1.406l-5.471,6.387
									c-0.182,0.213-0.446,0.339-0.727,0.351C19.694,103.741,19.684,103.741,19.673,103.741"/>
							</g>
						</g>
					</g>
				</g>
			</g>
		</g>
		<g>
			<g>
				<g>
					<g>
						<g>
							<g>
								<defs>
									<rect id="SVGID_9_" x="0.989" y="75.028" width="40.229" height="44.683"/>
								</defs>
								<clipPath id="SVGID_10_">
									<use xlink:href="#SVGID_9_"  overflow="visible"/>
								</clipPath>
								<path clip-path="url(#SVGID_10_)" fill="#FFFFFF" d="M31.161,77.026c-0.727,0-1.428,0.396-1.785,1.079
									c-0.248,0.479-0.297,1.021-0.137,1.533c0.16,0.512,0.512,0.933,0.986,1.182c0.475,0.247,1.02,0.299,1.528,0.138
									s0.938-0.515,1.187-0.984c0.514-0.983,0.131-2.2-0.854-2.718C31.793,77.099,31.474,77.026,31.161,77.026 M31.153,83.049
									c-0.639,0-1.271-0.15-1.854-0.458c-0.948-0.491-1.648-1.327-1.97-2.354c-0.321-1.021-0.225-2.106,0.271-3.059
									c1.025-1.965,3.451-2.724,5.413-1.699c1.961,1.021,2.725,3.452,1.698,5.413c-0.494,0.945-1.33,1.646-2.354,1.972
									C31.963,82.988,31.556,83.049,31.153,83.049"/>
							</g>
						</g>
					</g>
				</g>
			</g>
		</g>
	</g>
</g>
<g>
	<g>
		<g>
			<g>
				<g>
					<g>
						<g>
							<g>
								<defs>
									<rect id="SVGID_11_" x="0.833" y="134.071" width="40.539" height="35.961"/>
								</defs>
								<clipPath id="SVGID_12_">
									<use xlink:href="#SVGID_11_"  overflow="visible"/>
								</clipPath>
								<path clip-path="url(#SVGID_12_)" fill="#FFFFFF" d="M12.056,136.083c-2.164,0-4.544,0.698-6.445,2.664
									c-2.153,2.228-3.039,4.688-2.712,7.532c1.085,9.433,15.238,19.528,18.205,21.55c2.968-2.021,17.12-12.117,18.206-21.55
									c0.325-2.846-0.561-5.313-2.713-7.532c-2.979-3.083-7.143-3.052-9.799-2.091c-2.729,0.988-4.53,2.996-4.696,5.24
									c-0.039,0.521-0.475,0.928-0.998,0.928c-0.522,0-0.957-0.404-0.996-0.928c-0.168-2.244-1.968-4.252-4.698-5.24
									C14.445,136.308,13.286,136.083,12.056,136.083 M21.104,170.031c-0.188,0-0.377-0.054-0.541-0.158
									c-0.749-0.479-18.335-11.938-19.65-23.364c-0.396-3.43,0.702-6.51,3.26-9.149c3.003-3.104,7.68-4.111,11.916-2.579
									c2.238,0.812,3.989,2.203,5.015,3.901c1.025-1.698,2.775-3.096,5.015-3.901c4.233-1.532,8.914-0.521,11.915,2.579
									c2.558,2.646,3.654,5.726,3.26,9.149c-1.314,11.432-18.899,22.885-19.647,23.363
									C21.479,169.978,21.292,170.031,21.104,170.031"/>
							</g>
						</g>
					</g>
				</g>
			</g>
		</g>
	</g>
</g>
<g>
	<g>
		<g>
			<g>
				<g>
					<g>
						<g>
							<g>
								<defs>
									<rect id="SVGID_13_" x="2.294" y="182.804" width="36.611" height="41.633"/>
								</defs>
								<clipPath id="SVGID_14_">
									<use xlink:href="#SVGID_13_"  overflow="visible"/>
								</clipPath>
								<path clip-path="url(#SVGID_14_)" fill="#FFFFFF" d="M33.151,199.359L33.151,199.359c1.465,0,2.771,1.308,2.771,2.785
									c0,1.635-1.308,2.938-2.771,2.938c-1.646,0-2.955-1.308-2.955-2.938C30.196,200.665,31.505,199.359,33.151,199.359
									 M33.151,206.079L33.151,206.079c-2.146,0-3.948-1.806-3.948-3.937c0-1.962,1.806-3.771,3.948-3.771
									c1.961,0,3.768,1.809,3.768,3.771C36.919,204.275,35.112,206.079,33.151,206.079 M38.905,202.144
									c0-3.112-2.641-5.74-5.754-5.74c-3.295,0-5.91,2.628-5.91,5.74c0,2.938,2.119,5.242,4.916,5.728v6.08
									c0,4.745-3.922,8.513-8.682,8.513c-4.604,0-8.551-3.768-8.551-8.513v-6.892c2.301-0.326,4.446-1.64,6.407-3.938
									c0.341-0.326,0.496-0.649,0.341-1.146c2.614-3.271,4.08-7.859,4.08-11.473c0-5.413-2.459-5.896-6.382-6.892
									c-0.341-0.482-0.839-0.812-1.31-0.812c-0.992,0-1.646,0.65-1.646,1.479c0,0.813,0.653,1.636,1.646,1.636
									c0.316,0,0.629-0.17,0.812-0.498c3.925,0.994,5.073,1.15,5.073,5.087c0,3.112-1.465,7.204-3.766,10.329
									c-0.314,0-0.654,0.158-0.994,0.483c-1.125,1.32-2.955,2.785-5.073,2.785c-2.144,0-4.106-1.465-5.257-2.785
									c-0.156-0.325-0.653-0.483-0.993-0.483c-2.302-2.955-3.608-7.217-3.608-10.329c0-3.937,0.993-4.093,4.916-5.087
									c0.339,0.328,0.496,0.498,0.994,0.498c0.81,0,1.49-0.82,1.49-1.636c0-0.824-0.68-1.479-1.49-1.479
									c-0.655,0-1.152,0.324-1.465,0.813c-3.949,0.993-6.407,1.478-6.407,6.891c0,3.608,1.464,8.198,4.105,11.473
									c0,0.495,0,0.818,0.341,1.146c1.961,2.302,4.079,3.609,6.381,3.938v6.892c0,5.729,4.601,10.485,10.513,10.485
									c5.727,0,10.33-4.76,10.33-10.485v-6.08C36.761,207.386,38.905,205.084,38.905,202.144"/>
							</g>
						</g>
					</g>
				</g>
			</g>
		</g>
	</g>
</g>
<g>
	<g>
		<g>
			<g>
				<g>
					<g>
						<g>
							<g>
								<defs>
									<rect id="SVGID_15_" x="0.648" y="22.297" width="15.087" height="10.29"/>
								</defs>
								<clipPath id="SVGID_16_">
									<use xlink:href="#SVGID_15_"  overflow="visible"/>
								</clipPath>
								<path clip-path="url(#SVGID_16_)" fill="#FFFFFF" d="M14.713,31.888h-0.189l-3.965-4.549l4.477-3.924v8.146
									C15.035,31.741,14.891,31.888,14.713,31.888 M1.349,31.565v-8.146l4.476,3.924L1.86,31.888H1.67
									C1.493,31.888,1.349,31.741,1.349,31.565 M8.191,28.485l-6.262-5.487h12.524L8.191,28.485z M7.961,29.216
									c0.066,0.061,0.149,0.09,0.231,0.09s0.165-0.029,0.231-0.09l1.608-1.408l3.563,4.083H2.791l3.562-4.083L7.961,29.216z
									 M14.713,22.297H1.669c-0.563,0-1.021,0.457-1.021,1.021v8.248c0,0.563,0.458,1.021,1.021,1.021h13.043
									c0.563,0,1.021-0.459,1.021-1.021v-8.248C15.734,22.754,15.277,22.297,14.713,22.297"/>
							</g>
						</g>
					</g>
				</g>
			</g>
		</g>
	</g>
</g>
<g>
	<g>
		<g>
			<g>
				<g>
					<g>
						<g>
							<g>
								<defs>
									<rect id="SVGID_17_" x="-1927.699" y="-910.406" width="3901.001" height="2725"/>
								</defs>
								<clipPath id="SVGID_18_">
									<use xlink:href="#SVGID_17_"  overflow="visible"/>
								</clipPath>
								<path clip-path="url(#SVGID_18_)" fill="#FFFFFF" d="M2.958,439.933c0.181,0.111,0.388,0.17,0.598,0.17
									c0.399,0,0.761-0.202,0.97-0.54c0.16-0.26,0.21-0.564,0.139-0.86c-0.069-0.296-0.25-0.547-0.509-0.708
									c-0.18-0.106-0.386-0.17-0.598-0.17c-0.398,0-0.761,0.201-0.97,0.54C2.259,438.898,2.426,439.602,2.958,439.933
									 M3.559,438.19c0.144,0,0.284,0.04,0.405,0.115c0.176,0.104,0.299,0.28,0.346,0.479c0.047,0.2,0.014,0.408-0.095,0.583
									c-0.14,0.23-0.386,0.367-0.657,0.367c-0.142,0-0.282-0.039-0.405-0.115c-0.362-0.224-0.475-0.696-0.25-1.063
									C3.043,438.326,3.289,438.19,3.559,438.19"/>
							</g>
						</g>
					</g>
				</g>
			</g>
		</g>
		<g>
			<g>
				<g>
					<g>
						<g>
							<g>
								<defs>
									<rect id="SVGID_19_" x="-1927.699" y="-910.406" width="3901.001" height="2725"/>
								</defs>
								<clipPath id="SVGID_20_">
									<use xlink:href="#SVGID_19_"  overflow="visible"/>
								</clipPath>
								<path clip-path="url(#SVGID_20_)" fill="#FFFFFF" d="M22.61,430.493c-0.042-0.062-0.104-0.103-0.176-0.111
									c-0.071-0.02-0.146,0.001-0.207,0.042l-3.149,2.141c-0.238,0.164-0.394,0.403-0.456,0.665
									c-0.413-0.046-1.1-0.102-1.563-0.107c-1.192-0.021-2.188,0.154-3.246,0.588c-0.59-0.129-1.368-0.188-2.354-0.188
									c-0.878,0-1.756,0.052-2.443,0.103c-0.089-0.176-0.223-0.322-0.395-0.431l-3.092-1.913c-0.062-0.038-0.137-0.05-0.208-0.033
									c-0.071,0.021-0.132,0.063-0.171,0.123l-4.833,7.816c-0.08,0.13-0.04,0.299,0.09,0.378l3.092,1.913
									c0.07,0.043,0.146,0.076,0.224,0.102l1.604,1.137l-0.116,0.105c-0.574,0.581-0.582,1.54-0.02,2.137
									c0.282,0.302,0.659,0.467,1.063,0.467l0,0c0.077,0,0.152-0.013,0.227-0.021c-0.083,0.468,0.046,0.971,0.392,1.337
									c0.282,0.298,0.66,0.463,1.063,0.463c0.244,0,0.48-0.061,0.688-0.176c0.001,0.025,0,0.052,0.003,0.078
									c0.03,0.347,0.177,0.673,0.413,0.924c0.282,0.297,0.658,0.463,1.062,0.463c0.387,0,0.752-0.15,1.029-0.434l0.059-0.063
									c0.031,0.349,0.177,0.671,0.413,0.92c0.282,0.303,0.658,0.465,1.061,0.465c0.278,0,0.549-0.079,0.783-0.23
									c0.013-0.009,0.024-0.021,0.036-0.028l0.395-0.359l0.96,0.677c0.237,0.15,0.484,0.229,0.732,0.229
									c0.548,0,0.982-0.384,1.208-0.736c0.208-0.331,0.271-0.604,0.231-0.99c-0.001-0.01-0.002-0.021-0.003-0.029l0.106,0.078
									c0.258,0.19,0.559,0.292,0.872,0.292c0.527,0,1.016-0.282,1.307-0.76c0.203-0.33,0.292-0.729,0.252-1.12
									c-0.003-0.038-0.008-0.074-0.014-0.11c0.159,0.063,0.327,0.09,0.499,0.09c0.527,0,1.015-0.282,1.307-0.761
									c0.299-0.485,0.333-1.085,0.14-1.589c0.524-0.002,1.01-0.286,1.301-0.76c0.245-0.397,0.311-0.872,0.22-1.312
									c0.016,0.004,0.031,0.008,0.048,0.008c0.049,0,0.097-0.017,0.14-0.039l1.341-0.804c0.096-0.027,0.189-0.077,0.274-0.137
									l3.089-2.101c0.125-0.085,0.158-0.253,0.074-0.382L22.61,430.493z M21.175,440.744c0.008,0.013,0.018,0.02,0.027,0.022
									l0.835,0.604c0.474,0.354,0.595,1.063,0.27,1.597c-0.191,0.313-0.504,0.497-0.838,0.497c-0.194,0-0.382-0.063-0.545-0.188
									c-0.001-0.001-0.002-0.001-0.002-0.002c-0.001,0-0.002-0.001-0.003-0.001l-2.332-1.635
									c-0.124-0.088-0.296-0.063-0.384,0.063c-0.087,0.124-0.057,0.298,0.067,0.389l2.328,1.631
									c0.473,0.35,0.593,1.063,0.269,1.593c-0.191,0.313-0.505,0.495-0.838,0.495c-0.193,0-0.383-0.063-0.545-0.185l-0.604-0.442
									l0,0l0,0l-1.795-1.321c-0.122-0.091-0.294-0.063-0.384,0.063c-0.09,0.116-0.064,0.294,0.058,0.384l1.795,1.321l0,0h0.001
									c0.249,0.185,0.41,0.479,0.443,0.813c0.027,0.273-0.034,0.55-0.175,0.778c-0.191,0.311-0.503,0.498-0.838,0.498
									c-0.194,0-0.382-0.064-0.545-0.188l-1.088-0.804l-0.399-0.337c-0.115-0.103-0.289-0.084-0.387,0.032
									c-0.098,0.11-0.083,0.289,0.032,0.387l0.402,0.35c0.003,0.001,0.006,0.003,0.008,0.005c0.002,0.003,0.004,0.01,0.006,0.012
									l0,0l0,0c0.25,0.183,0.411,0.479,0.445,0.813c0.027,0.271-0.008,0.417-0.149,0.646c-0.14,0.223-0.418,0.479-0.743,0.479
									c-0.14,0-0.288-0.048-0.425-0.136l-0.852-0.604l0.308-0.279c0.574-0.581,0.582-1.54,0.019-2.142
									c-0.263-0.272-0.608-0.438-0.98-0.459c0.281-0.563,0.198-1.271-0.254-1.754c-0.282-0.298-0.659-0.462-1.063-0.462
									c-0.244,0-0.479,0.063-0.688,0.176c-0.001-0.021,0-0.052-0.003-0.077c-0.03-0.346-0.177-0.674-0.413-0.925
									c-0.282-0.299-0.658-0.462-1.062-0.462c-0.387,0-0.752,0.153-1.029,0.436l-0.058,0.059
									c-0.031-0.344-0.177-0.671-0.412-0.918c-0.281-0.299-0.658-0.463-1.061-0.463c-0.278,0-0.549,0.08-0.783,0.229
									c-0.014,0.014-0.026,0.021-0.038,0.029l-1.035,0.967l-1.161-0.817c0.164-0.091,0.304-0.221,0.406-0.386l3.99-6.446
									c0.095-0.156,0.148-0.332,0.158-0.515c0.665-0.049,1.498-0.097,2.328-0.097c0.585,0,1.063,0.023,1.455,0.063
									c-0.018,0.013-0.034,0.021-0.051,0.026l-3.788,2.154c-0.008,0.005-0.015,0.01-0.021,0.014
									c-0.82,0.568-1.024,1.696-0.456,2.521c0.566,0.813,1.689,1.021,2.508,0.463l4.338-2.559l5.62,3.896
									C21.101,440.677,21.139,440.715,21.175,440.744 M12.664,448.819c-0.25,0-0.485-0.102-0.662-0.289
									c-0.151-0.161-0.246-0.372-0.265-0.595c-0.025-0.292,0.075-0.574,0.269-0.771l0,0l0.915-0.857
									c0.171-0.173,0.398-0.271,0.637-0.271c0.25,0,0.485,0.104,0.663,0.29c0.362,0.389,0.358,1.001-0.001,1.363l-1.09,1.002
									C12.988,448.773,12.829,448.819,12.664,448.819 M10.101,447.932c-0.25,0-0.485-0.104-0.663-0.29
									c-0.152-0.16-0.245-0.371-0.265-0.595c-0.025-0.292,0.075-0.576,0.27-0.773l1.754-1.693l0.485-0.485
									c0.172-0.179,0.398-0.271,0.638-0.271c0.25,0,0.486,0.104,0.662,0.289c0.363,0.385,0.358,1-0.003,1.367l-1.36,1.293
									l-0.883,0.892C10.566,447.841,10.34,447.932,10.101,447.932 M6.253,444.863c-0.25,0-0.485-0.104-0.662-0.29
									c-0.363-0.385-0.358-1,0.002-1.365l1.536-1.433c0.14-0.086,0.3-0.132,0.464-0.132c0.25,0,0.485,0.104,0.662,0.291
									c0.152,0.161,0.246,0.371,0.266,0.594c0.025,0.293-0.075,0.576-0.27,0.772l-1.353,1.288c0,0,0,0,0,0.001l-0.006,0.004
									C6.719,444.768,6.493,444.863,6.253,444.863L6.253,444.863z M7.275,444.986l1.354-1.287v-0.002l0.005-0.004l0.882-0.893
									c0.172-0.173,0.398-0.271,0.638-0.271c0.25,0,0.485,0.104,0.662,0.291c0.152,0.159,0.246,0.371,0.266,0.594
									c0.025,0.291-0.075,0.575-0.271,0.772l-1.754,1.692l-0.485,0.487c-0.172,0.178-0.398,0.271-0.637,0.271
									c-0.25,0-0.485-0.104-0.663-0.29C6.909,445.969,6.914,445.354,7.275,444.986 M8.332,433.653
									c0.12,0.074,0.204,0.19,0.236,0.326c0.032,0.138,0.009,0.279-0.065,0.399l-3.989,6.446c-0.097,0.156-0.266,0.251-0.45,0.251
									c-0.097,0-0.193-0.023-0.276-0.075L0.93,439.23l4.545-7.35L8.332,433.653z M15.613,436.194
									c-0.087-0.062-0.204-0.063-0.295-0.012l-4.499,2.646c-0.005,0.004-0.012,0.013-0.017,0.016
									c-0.57,0.396-1.355,0.255-1.751-0.317c-0.394-0.564-0.255-1.347,0.307-1.743l3.77-2.146
									c1.364-0.729,2.462-0.996,3.921-0.968c0.492,0.01,1.215,0.066,1.582,0.107c0.032,0.115,0.082,0.229,0.153,0.332l4.467,6.568
									c0.096,0.141,0.22,0.253,0.362,0.336l-0.558,0.334L15.613,436.194z M24.492,440.521c-0.096,0.064-0.204,0.099-0.318,0.099
									c-0.188,0-0.364-0.093-0.469-0.248l-4.467-6.564c-0.176-0.258-0.108-0.61,0.149-0.787l2.92-1.984l5.046,7.544
									L24.492,440.521z"/>
							</g>
						</g>
					</g>
				</g>
			</g>
		</g>
	</g>
</g>
<g>
	<g>
		<g>
			<g>
				<g>
					<g>
						<g>
							<g>
								<defs>
									<rect id="SVGID_21_" x="5.394" y="323.581" width="18.723" height="18.033"/>
								</defs>
								<clipPath id="SVGID_22_">
									<use xlink:href="#SVGID_21_"  overflow="visible"/>
								</clipPath>
								<path clip-path="url(#SVGID_22_)" fill="#FFFFFF" d="M24.116,338.532L24.116,338.532c0,2.021-4.717,3.082-9.375,3.082
									c-4.632,0-9.348-1.063-9.348-3.082c0-1.664,3.011-2.455,4.83-2.756l0.199,1.092c-2.898,0.521-3.864,1.363-3.864,1.664
									c0,0.688,3.096,1.938,8.183,1.938c5.083,0,8.181-1.254,8.181-1.938c0-0.354-0.795-1.092-3.863-1.664l0.199-1.092
									C22.468,336.35,24.116,337.256,24.116,338.532"/>
							</g>
						</g>
					</g>
				</g>
			</g>
		</g>
		<g>
			<g>
				<g>
					<g>
						<g>
							<g>
								<defs>
									<rect id="SVGID_23_" x="5.394" y="323.581" width="18.723" height="18.033"/>
								</defs>
								<clipPath id="SVGID_24_">
									<use xlink:href="#SVGID_23_"  overflow="visible"/>
								</clipPath>
								<path clip-path="url(#SVGID_24_)" fill="#FFFFFF" d="M16.331,328.139c0,0.846-0.711,1.521-1.591,1.521
									c-0.881,0-1.59-0.682-1.59-1.521c0-0.846,0.71-1.502,1.591-1.502C15.622,326.637,16.331,327.297,16.331,328.139
									 M19.485,328.139c0-2.512-2.133-4.562-4.745-4.562c-2.614,0-4.745,2.05-4.745,4.562c0,3.955,4.745,11.078,4.745,11.078
									S19.485,332.014,19.485,328.139"/>
							</g>
						</g>
					</g>
				</g>
			</g>
		</g>
	</g>
</g>
<g>
	<g>
		<g>
			<g>
				<g>
					<g>
						<g>
							<g>
								<defs>
									<rect id="SVGID_25_" x="8.91" y="289.247" width="11.689" height="21.495"/>
								</defs>
								<clipPath id="SVGID_26_">
									<use xlink:href="#SVGID_25_"  overflow="visible"/>
								</clipPath>
								<path clip-path="url(#SVGID_26_)" fill="#FFFFFF" d="M19.139,289.247h-8.687c-0.811,0-1.542,0.771-1.542,1.619v18.364
									c0,0.836,0.731,1.512,1.542,1.512h8.687c0.812,0,1.461-0.676,1.461-1.512v-18.364
									C20.6,290.017,19.949,289.247,19.139,289.247 M19.461,306.772L19.461,306.772h-9.413V291.96h9.413V306.772z M15.973,309.312
									L15.973,309.312c0,0.338-0.246,0.594-0.568,0.594h-1.3c-0.239,0-0.485-0.256-0.485-0.594v-1.35
									c0-0.263,0.246-0.521,0.485-0.521h1.3c0.323,0,0.568,0.258,0.568,0.521V309.312z M13.211,290.435h3.166v0.433h-3.166
									V290.435z"/>
							</g>
						</g>
					</g>
				</g>
			</g>
		</g>
	</g>
</g>
<g>
	<g>
		<g>
			<g>
				<g>
					<g>
						<g>
							<g>
								<defs>
									<rect id="SVGID_27_" x="0.648" y="44.14" width="15.087" height="14.529"/>
								</defs>
								<clipPath id="SVGID_28_">
									<use xlink:href="#SVGID_27_"  overflow="visible"/>
								</clipPath>
								<path clip-path="url(#SVGID_28_)" fill="#FFFFFF" d="M2.315,46.224c-0.44,0-0.797,0.357-0.797,0.81v9.954
									c0,0.445,0.357,0.808,0.797,0.808h11.753c0.439,0,0.797-0.357,0.797-0.808v-9.954c0-0.445-0.355-0.81-0.797-0.81H2.315z
									 M14.068,58.673H2.315c-0.919,0-1.667-0.756-1.667-1.687v-9.955c0-0.932,0.748-1.688,1.667-1.688h11.753
									c0.92,0,1.666,0.76,1.666,1.688v9.955C15.734,57.917,14.988,58.673,14.068,58.673"/>
							</g>
						</g>
					</g>
				</g>
			</g>
		</g>
	</g>
	<path fill="#FFFFFF" d="M3.703,56.181h8.978v-5.969H3.703V56.181z M13.549,57.06H2.833v-7.727h10.715L13.549,57.06L13.549,57.06z"
		/>
	<g>
		<g>
			<g>
				<g>
					<g>
						<g>
							<g>
								<defs>
									<rect id="SVGID_29_" x="0.648" y="44.14" width="15.087" height="14.529"/>
								</defs>
								<clipPath id="SVGID_30_">
									<use xlink:href="#SVGID_29_"  overflow="visible"/>
								</clipPath>
								<path clip-path="url(#SVGID_30_)" fill="#FFFFFF" d="M4.126,47.075c-0.36,0-0.652-0.296-0.652-0.66V44.8
									c0-0.361,0.292-0.656,0.652-0.656s0.652,0.295,0.652,0.656v1.613C4.778,46.78,4.486,47.075,4.126,47.075"/>
							</g>
						</g>
					</g>
				</g>
			</g>
		</g>
		<g>
			<g>
				<g>
					<g>
						<g>
							<g>
								<defs>
									<rect id="SVGID_31_" x="0.648" y="44.14" width="15.087" height="14.529"/>
								</defs>
								<clipPath id="SVGID_32_">
									<use xlink:href="#SVGID_31_"  overflow="visible"/>
								</clipPath>
								<path clip-path="url(#SVGID_32_)" fill="#FFFFFF" d="M6.55,56.776c-0.24,0-0.434-0.196-0.434-0.44v-6.398
									c0-0.244,0.193-0.44,0.434-0.44c0.241,0,0.436,0.196,0.436,0.44v6.398C6.986,56.577,6.792,56.776,6.55,56.776"/>
							</g>
						</g>
					</g>
				</g>
			</g>
		</g>
		<g>
			<g>
				<g>
					<g>
						<g>
							<g>
								<defs>
									<rect id="SVGID_33_" x="0.648" y="44.14" width="15.087" height="14.529"/>
								</defs>
								<clipPath id="SVGID_34_">
									<use xlink:href="#SVGID_33_"  overflow="visible"/>
								</clipPath>
								<path clip-path="url(#SVGID_34_)" fill="#FFFFFF" d="M9.834,56.776c-0.24,0-0.436-0.196-0.436-0.44v-6.398
									c0-0.244,0.193-0.44,0.436-0.44c0.238,0,0.435,0.196,0.435,0.44v6.398C10.268,56.577,10.072,56.776,9.834,56.776"/>
							</g>
						</g>
					</g>
				</g>
			</g>
		</g>
		<g>
			<g>
				<g>
					<g>
						<g>
							<g>
								<defs>
									<rect id="SVGID_35_" x="0.648" y="44.14" width="15.087" height="14.529"/>
								</defs>
								<clipPath id="SVGID_36_">
									<use xlink:href="#SVGID_35_"  overflow="visible"/>
								</clipPath>
								<path clip-path="url(#SVGID_36_)" fill="#FFFFFF" d="M12.953,51.927H3.269c-0.24,0-0.434-0.195-0.434-0.439
									c0-0.241,0.193-0.438,0.434-0.438h9.685c0.238,0,0.434,0.195,0.434,0.438C13.387,51.729,13.191,51.927,12.953,51.927"/>
							</g>
						</g>
					</g>
				</g>
			</g>
		</g>
		<g>
			<g>
				<g>
					<g>
						<g>
							<g>
								<defs>
									<rect id="SVGID_37_" x="0.648" y="44.14" width="15.087" height="14.529"/>
								</defs>
								<clipPath id="SVGID_38_">
									<use xlink:href="#SVGID_37_"  overflow="visible"/>
								</clipPath>
								<path clip-path="url(#SVGID_38_)" fill="#FFFFFF" d="M15.301,48.636H1.151c-0.24,0-0.435-0.197-0.435-0.439
									c0-0.243,0.195-0.438,0.435-0.438H15.3c0.24,0,0.434,0.195,0.434,0.438C15.734,48.438,15.541,48.636,15.301,48.636"/>
							</g>
						</g>
					</g>
				</g>
			</g>
		</g>
		<g>
			<g>
				<g>
					<g>
						<g>
							<g>
								<defs>
									<rect id="SVGID_39_" x="0.648" y="44.14" width="15.087" height="14.529"/>
								</defs>
								<clipPath id="SVGID_40_">
									<use xlink:href="#SVGID_39_"  overflow="visible"/>
								</clipPath>
								<path clip-path="url(#SVGID_40_)" fill="#FFFFFF" d="M12.953,53.638H3.269c-0.24,0-0.434-0.195-0.434-0.438
									c0-0.242,0.193-0.438,0.434-0.438h9.685c0.238,0,0.434,0.191,0.434,0.438C13.387,53.44,13.191,53.638,12.953,53.638"/>
							</g>
						</g>
					</g>
				</g>
			</g>
		</g>
		<g>
			<g>
				<g>
					<g>
						<g>
							<g>
								<defs>
									<rect id="SVGID_41_" x="0.648" y="44.14" width="15.087" height="14.529"/>
								</defs>
								<clipPath id="SVGID_42_">
									<use xlink:href="#SVGID_41_"  overflow="visible"/>
								</clipPath>
								<path clip-path="url(#SVGID_42_)" fill="#FFFFFF" d="M12.953,55.351H3.269c-0.24,0-0.434-0.197-0.434-0.44
									c0-0.242,0.193-0.438,0.434-0.438h9.685c0.238,0,0.434,0.191,0.434,0.438C13.387,55.151,13.191,55.351,12.953,55.351"/>
							</g>
						</g>
					</g>
				</g>
			</g>
		</g>
		<g>
			<g>
				<g>
					<g>
						<g>
							<g>
								<defs>
									<rect id="SVGID_43_" x="0.648" y="44.14" width="15.087" height="14.529"/>
								</defs>
								<clipPath id="SVGID_44_">
									<use xlink:href="#SVGID_43_"  overflow="visible"/>
								</clipPath>
								<path clip-path="url(#SVGID_44_)" fill="#FFFFFF" d="M12.191,47.075c-0.359,0-0.652-0.296-0.652-0.66V44.8
									c0-0.361,0.293-0.656,0.652-0.656s0.652,0.295,0.652,0.656v1.613C12.844,46.78,12.551,47.075,12.191,47.075"/>
							</g>
						</g>
					</g>
				</g>
			</g>
		</g>
	</g>
</g>
<g>
	<g>
		<g>
			<g>
				<g>
					<g>
						<g>
							<g>
								<defs>
									<rect id="SVGID_45_" x="0.783" y="232.178" width="41.633" height="41.633"/>
								</defs>
								<clipPath id="SVGID_46_">
									<use xlink:href="#SVGID_45_"  overflow="visible"/>
								</clipPath>
								<path clip-path="url(#SVGID_46_)" fill="#FFFFFF" d="M21.599,234.522c-10.185,0-18.472,8.287-18.472,18.474
									c0,10.188,8.287,18.477,18.472,18.477c10.186,0,18.472-8.287,18.472-18.477C40.071,242.809,31.785,234.522,21.599,234.522
									 M21.599,273.812c-11.478,0-20.816-9.338-20.816-20.817c0-11.479,9.338-20.813,20.816-20.813
									c11.479,0,20.816,9.338,20.816,20.813C42.415,264.472,33.078,273.812,21.599,273.812"/>
							</g>
						</g>
					</g>
				</g>
			</g>
		</g>
	</g>
	<polygon fill="#FFFFFF" points="33.25,249.513 33.25,255.794 24.91,255.794 24.91,263.688 18.288,263.688 18.288,255.794 
		9.949,255.794 9.949,249.513 18.288,249.513 18.288,241.636 24.91,241.636 24.91,249.513 	"/>
</g>
<g>
	<g>
		<g>
			<g>
				<g>
					<g>
						<g>
							<g>
								<defs>
									<rect id="SVGID_47_" x="0.814" y="0" width="14.755" height="14.755"/>
								</defs>
								<clipPath id="SVGID_48_">
									<use xlink:href="#SVGID_47_"  overflow="visible"/>
								</clipPath>
								<path clip-path="url(#SVGID_48_)" fill="#FF0000" d="M8.192,0.829c-3.61,0-6.547,2.938-6.547,6.548
									c0,3.608,2.937,6.547,6.547,6.547s6.547-2.938,6.547-6.547C14.739,3.768,11.802,0.829,8.192,0.829 M8.192,14.755
									c-4.068,0-7.378-3.312-7.378-7.378C0.814,3.309,4.124,0,8.192,0c4.067,0,7.378,3.313,7.378,7.377
									C15.57,11.444,12.259,14.755,8.192,14.755"/>
							</g>
						</g>
					</g>
				</g>
			</g>
		</g>
	</g>
	<polygon fill="#FF0000" points="12.108,6.144 12.108,8.368 9.305,8.368 9.305,11.167 7.079,11.167 7.079,8.368 4.274,8.368 
		4.274,6.144 7.079,6.144 7.079,3.352 9.305,3.352 9.305,6.144 	"/>
</g>
<g>
	<g>
		<g>
			<g>
				<g>
					<g>
						<g>
							<g>
								<defs>
									<rect id="SVGID_49_" x="3.812" y="378.765" width="18.722" height="18.034"/>
								</defs>
								<clipPath id="SVGID_50_">
									<use xlink:href="#SVGID_49_"  overflow="visible"/>
								</clipPath>
								<path clip-path="url(#SVGID_50_)" fill="#FFFFFF" d="M5.88,381.351c-0.546,0-0.989,0.449-0.989,1.003v12.355
									c0,0.55,0.443,0.994,0.989,0.994h14.585c0.545,0,0.989-0.442,0.989-0.994v-12.355c0-0.553-0.441-1.003-0.989-1.003H5.88z
									 M20.465,396.802H5.88c-1.14,0-2.068-0.938-2.068-2.09v-12.355c0-1.155,0.928-2.095,2.068-2.095h14.585
									c1.142,0,2.067,0.938,2.067,2.095v12.355C22.533,395.86,21.607,396.802,20.465,396.802"/>
							</g>
						</g>
					</g>
				</g>
			</g>
		</g>
	</g>
	<path fill="#FFFFFF" d="M7.602,393.705h11.141v-7.396H7.602V393.705z M19.82,394.802H6.523v-9.584H19.82V394.802z"/>
	<g>
		<g>
			<g>
				<g>
					<g>
						<g>
							<g>
								<defs>
									<rect id="SVGID_51_" x="3.812" y="378.765" width="18.722" height="18.034"/>
								</defs>
								<clipPath id="SVGID_52_">
									<use xlink:href="#SVGID_51_"  overflow="visible"/>
								</clipPath>
								<path clip-path="url(#SVGID_52_)" fill="#FFFFFF" d="M8.128,382.406c-0.447,0-0.809-0.367-0.809-0.815v-2.008
									c0-0.448,0.362-0.814,0.809-0.814c0.447,0,0.809,0.366,0.809,0.814v2.007C8.937,382.039,8.575,382.406,8.128,382.406"/>
							</g>
						</g>
					</g>
				</g>
			</g>
		</g>
		<g>
			<g>
				<g>
					<g>
						<g>
							<g>
								<defs>
									<rect id="SVGID_53_" x="3.812" y="378.765" width="18.722" height="18.034"/>
								</defs>
								<clipPath id="SVGID_54_">
									<use xlink:href="#SVGID_53_"  overflow="visible"/>
								</clipPath>
								<path clip-path="url(#SVGID_54_)" fill="#FFFFFF" d="M11.136,394.445c-0.297,0-0.539-0.245-0.539-0.546v-7.946
									c0-0.303,0.24-0.548,0.539-0.548c0.299,0,0.541,0.245,0.541,0.548v7.943C11.677,394.198,11.435,394.445,11.136,394.445"/>
							</g>
						</g>
					</g>
				</g>
			</g>
		</g>
		<g>
			<g>
				<g>
					<g>
						<g>
							<g>
								<defs>
									<rect id="SVGID_55_" x="3.812" y="378.765" width="18.722" height="18.034"/>
								</defs>
								<clipPath id="SVGID_56_">
									<use xlink:href="#SVGID_55_"  overflow="visible"/>
								</clipPath>
								<path clip-path="url(#SVGID_56_)" fill="#FFFFFF" d="M15.21,394.445c-0.298,0-0.541-0.245-0.541-0.546v-7.946
									c0-0.303,0.24-0.548,0.541-0.548c0.296,0,0.54,0.245,0.54,0.548v7.943C15.749,394.198,15.506,394.445,15.21,394.445"/>
							</g>
						</g>
					</g>
				</g>
			</g>
		</g>
		<g>
			<g>
				<g>
					<g>
						<g>
							<g>
								<defs>
									<rect id="SVGID_57_" x="3.812" y="378.765" width="18.722" height="18.034"/>
								</defs>
								<clipPath id="SVGID_58_">
									<use xlink:href="#SVGID_57_"  overflow="visible"/>
								</clipPath>
								<path clip-path="url(#SVGID_58_)" fill="#FFFFFF" d="M19.082,388.429H7.063c-0.298,0-0.539-0.244-0.539-0.546
									c0-0.307,0.24-0.547,0.539-0.547h12.019c0.295,0,0.538,0.239,0.538,0.546C19.62,388.184,19.377,388.429,19.082,388.429"/>
							</g>
						</g>
					</g>
				</g>
			</g>
		</g>
		<g>
			<g>
				<g>
					<g>
						<g>
							<g>
								<defs>
									<rect id="SVGID_59_" x="3.812" y="378.765" width="18.722" height="18.034"/>
								</defs>
								<clipPath id="SVGID_60_">
									<use xlink:href="#SVGID_59_"  overflow="visible"/>
								</clipPath>
								<path clip-path="url(#SVGID_60_)" fill="#FFFFFF" d="M21.995,384.344H4.436c-0.298,0-0.54-0.243-0.54-0.545
									c0-0.307,0.242-0.546,0.54-0.546h17.559c0.298,0,0.538,0.239,0.538,0.546C22.533,384.1,22.292,384.344,21.995,384.344"/>
							</g>
						</g>
					</g>
				</g>
			</g>
		</g>
		<g>
			<g>
				<g>
					<g>
						<g>
							<g>
								<defs>
									<rect id="SVGID_61_" x="3.812" y="378.765" width="18.722" height="18.034"/>
								</defs>
								<clipPath id="SVGID_62_">
									<use xlink:href="#SVGID_61_"  overflow="visible"/>
								</clipPath>
								<path clip-path="url(#SVGID_62_)" fill="#FFFFFF" d="M19.082,390.552H7.063c-0.298,0-0.539-0.243-0.539-0.545
									c0-0.307,0.24-0.547,0.539-0.547h12.019c0.295,0,0.538,0.239,0.538,0.546C19.62,390.307,19.377,390.552,19.082,390.552"/>
							</g>
						</g>
					</g>
				</g>
			</g>
		</g>
		<g>
			<g>
				<g>
					<g>
						<g>
							<g>
								<defs>
									<rect id="SVGID_63_" x="3.812" y="378.765" width="18.722" height="18.034"/>
								</defs>
								<clipPath id="SVGID_64_">
									<use xlink:href="#SVGID_63_"  overflow="visible"/>
								</clipPath>
								<path clip-path="url(#SVGID_64_)" fill="#FFFFFF" d="M19.082,392.677H7.063c-0.298,0-0.539-0.244-0.539-0.546
									c0-0.307,0.24-0.552,0.539-0.552h12.019c0.295,0,0.538,0.243,0.538,0.55C19.619,392.431,19.377,392.677,19.082,392.677"/>
							</g>
						</g>
					</g>
				</g>
			</g>
		</g>
		<g>
			<g>
				<g>
					<g>
						<g>
							<g>
								<defs>
									<rect id="SVGID_65_" x="3.812" y="378.765" width="18.722" height="18.034"/>
								</defs>
								<clipPath id="SVGID_66_">
									<use xlink:href="#SVGID_65_"  overflow="visible"/>
								</clipPath>
								<path clip-path="url(#SVGID_66_)" fill="#FFFFFF" d="M18.136,382.406c-0.446,0-0.81-0.367-0.81-0.815v-2.008
									c0-0.448,0.363-0.814,0.81-0.814c0.446,0,0.81,0.366,0.81,0.814v2.007C18.946,382.039,18.582,382.406,18.136,382.406"/>
							</g>
						</g>
					</g>
				</g>
			</g>
		</g>
	</g>
</g>
<g>
	<g>
		<g>
			<g>
				<g>
					<g>
						<defs>
							<rect id="SVGID_67_" x="3.812" y="405.427" width="18.722" height="18.976"/>
						</defs>
						<clipPath id="SVGID_68_">
							<use xlink:href="#SVGID_67_"  overflow="visible"/>
						</clipPath>
						<path clip-path="url(#SVGID_68_)" fill="#FFFFFF" d="M13.173,406.493c-4.58,0-8.307,3.778-8.307,8.42
							c0,4.646,3.727,8.423,8.307,8.423s8.307-3.775,8.307-8.423C21.479,410.272,17.752,406.493,13.173,406.493 M13.173,424.402
							c-5.162,0-9.361-4.256-9.361-9.488c0-5.229,4.199-9.482,9.361-9.482c5.162,0,9.361,4.256,9.361,9.482
							C22.534,420.146,18.334,424.402,13.173,424.402"/>
					</g>
				</g>
			</g>
		</g>
	</g>
</g>
<polygon fill="#FFFFFF" points="18.142,413.326 18.142,416.19 14.585,416.19 14.585,419.787 11.76,419.787 11.76,416.19 
	8.203,416.19 8.203,413.326 11.76,413.326 11.76,409.737 14.585,409.737 14.585,413.326 "/>
<g>
	<g>
		<g>
			<g>
				<g>
					<g>
						<defs>
							<rect id="SVGID_69_" x="4.812" y="356.38" width="18.722" height="12.771"/>
						</defs>
						<clipPath id="SVGID_70_">
							<use xlink:href="#SVGID_69_"  overflow="visible"/>
						</clipPath>
						<path clip-path="url(#SVGID_70_)" fill="#FFFFFF" d="M22.267,368.278H22.03l-4.921-5.639l5.555-4.869v10.109
							C22.665,368.1,22.485,368.278,22.267,368.278 M5.681,367.884v-10.109l5.555,4.867l-4.92,5.641H6.079
							C5.859,368.278,5.681,368.1,5.681,367.884 M14.172,364.058l-7.771-6.813h15.542L14.172,364.058z M13.886,364.966
							c0.082,0.067,0.184,0.104,0.286,0.104c0.103,0,0.205-0.036,0.287-0.104l1.997-1.751l4.42,5.063H7.468l4.421-5.063
							L13.886,364.966z M22.267,356.38H6.079c-0.698,0-1.267,0.563-1.267,1.268v10.236c0,0.694,0.569,1.268,1.267,1.268h16.188
							c0.699,0,1.267-0.568,1.267-1.268v-10.236C23.533,356.944,22.965,356.38,22.267,356.38"/>
					</g>
				</g>
			</g>
		</g>
	</g>
</g>
<g>
	<g>
		<g>
			<g>
				<g>
					<g>
						<defs>
							<rect id="SVGID_71_" x="27.873" y="22.906" width="25" height="25.908"/>
						</defs>
						<clipPath id="SVGID_72_">
							<use xlink:href="#SVGID_71_"  overflow="visible"/>
						</clipPath>
						<path clip-path="url(#SVGID_72_)" fill="#88B2CC" d="M29.369,32.92c0-4.691,3.821-8.517,8.519-8.517
							c4.694,0,8.516,3.82,8.516,8.517c0,4.697-3.816,8.521-8.516,8.521C33.19,41.438,29.369,37.617,29.369,32.92 M52.653,47.537
							l-7.618-7.617c1.769-1.81,2.864-4.273,2.864-7c0-5.521-4.492-10.014-10.012-10.014c-5.522,0-10.021,4.491-10.021,10.014
							c0,5.521,4.489,10.018,10.021,10.018c2.258,0,4.338-0.765,6.016-2.028l7.688,7.69c0.146,0.146,0.344,0.219,0.53,0.219
							s0.383-0.072,0.524-0.219C52.946,48.304,52.946,47.831,52.653,47.537"/>
					</g>
				</g>
			</g>
		</g>
	</g>
</g>
<polygon fill="#FFFFFF" points="7.141,458.885 7.141,466.413 3.674,462.927 3.674,464.255 7.625,468.217 11.588,464.255 
	11.588,462.927 8.122,466.413 8.122,458.885 "/>
<g>
	<g>
		<g>
			<g>
				<g>
					<defs>
						<rect id="SVGID_73_" y="458.885" width="14.674" height="12.81"/>
					</defs>
					<clipPath id="SVGID_74_">
						<use xlink:href="#SVGID_73_"  overflow="visible"/>
					</clipPath>
					<line clip-path="url(#SVGID_74_)" fill="none" stroke="#FFFFFF" x1="0.5" y1="465.903" x2="0.5" y2="470.885"/>
				</g>
			</g>
		</g>
	</g>
	<g>
		<g>
			<g>
				<g>
					<defs>
						<rect id="SVGID_75_" y="458.885" width="14.674" height="12.81"/>
					</defs>
					<clipPath id="SVGID_76_">
						<use xlink:href="#SVGID_75_"  overflow="visible"/>
					</clipPath>
					<line clip-path="url(#SVGID_76_)" fill="none" stroke="#FFFFFF" x1="0" y1="471.194" x2="14.674" y2="471.194"/>
				</g>
			</g>
		</g>
	</g>
	<g>
		<g>
			<g>
				<g>
					<defs>
						<rect id="SVGID_77_" y="458.885" width="14.674" height="12.81"/>
					</defs>
					<clipPath id="SVGID_78_">
						<use xlink:href="#SVGID_77_"  overflow="visible"/>
					</clipPath>
					<line clip-path="url(#SVGID_78_)" fill="none" stroke="#FFFFFF" x1="14.174" y1="471.194" x2="14.174" y2="465.903"/>
				</g>
			</g>
		</g>
	</g>
</g>
<g>
	<g>
		<defs>
			<rect id="SVGID_79_" x="24" y="1" width="14.755" height="15.291"/>
		</defs>
		<clipPath id="SVGID_80_">
			<use xlink:href="#SVGID_79_"  overflow="visible"/>
		</clipPath>
		<path clip-path="url(#SVGID_80_)" fill="#88B2CC" d="M24.883,6.91c0-2.771,2.255-5.026,5.028-5.026
			c2.771,0,5.025,2.256,5.025,5.026c0,2.771-2.256,5.026-5.025,5.026C27.139,11.936,24.883,9.681,24.883,6.91 M38.626,15.537
			l-4.496-4.496c1.043-1.066,1.689-2.523,1.689-4.131c0-3.26-2.65-5.91-5.908-5.91C26.651,1,24,3.65,24,6.91
			c0,3.259,2.652,5.909,5.912,5.909c1.332,0,2.562-0.448,3.551-1.196l4.539,4.539c0.086,0.086,0.199,0.129,0.313,0.129
			c0.113,0,0.227-0.043,0.313-0.129C38.798,15.989,38.798,15.71,38.626,15.537"/>
	</g>
</g>
<polygon fill="#404D5C" points="47.841,458.885 47.841,466.416 44.372,462.929 44.372,464.254 48.324,468.216 52.287,464.254 
	52.287,462.929 48.82,466.416 48.82,458.885 "/>
<g>
	<defs>
		<rect id="SVGID_81_" x="40.7" y="458.886" width="14.673" height="12.81"/>
	</defs>
	<clipPath id="SVGID_82_">
		<use xlink:href="#SVGID_81_"  overflow="visible"/>
	</clipPath>
	<line clip-path="url(#SVGID_82_)" fill="none" stroke="#404D5C" x1="41.2" y1="465.905" x2="41.2" y2="470.885"/>
	<line clip-path="url(#SVGID_82_)" fill="none" stroke="#404D5C" x1="40.7" y1="471.196" x2="55.373" y2="471.196"/>
	<line clip-path="url(#SVGID_82_)" fill="none" stroke="#404D5C" x1="54.873" y1="471.196" x2="54.873" y2="465.905"/>
</g>
</svg>
